<svg width="180" height="180" viewBox="0 0 180 180" xmlns="http://www.w3.org/2000/svg">
  <rect width="180" height="180" rx="40" fill="#2C5F8A"/>
  <!-- back bubble: the reply/quote thread -->
  <path d="M34 44 h68 a16 16 0 0 1 16 16 v32 a16 16 0 0 1 -16 16 h-42 l-13 13 v-17 h-13 a16 16 0 0 1 -16 -16 v-28 a16 16 0 0 1 16 -16 z" fill="#8FC1E3" opacity="0.6"/>
  <!-- front bubble: the active conversation -->
  <path d="M60 64 h70 a18 18 0 0 1 18 18 v30 a18 18 0 0 1 -18 18 h-48 l-15 15 v-19 h-7 a18 18 0 0 1 -18 -18 v-26 a18 18 0 0 1 18 -18 z" fill="#FFFFFF"/>
  <!-- voice-message waveform -->
  <rect x="88" y="96" width="7" height="18" rx="3.5" fill="#2C5F8A"/>
  <rect x="101" y="88" width="7" height="34" rx="3.5" fill="#2C5F8A"/>
  <rect x="114" y="92" width="7" height="26" rx="3.5" fill="#2C5F8A"/>
  <rect x="127" y="100" width="7" height="10" rx="3.5" fill="#2C5F8A"/>
</svg>
